{"title":"Hindi Medium 2017 Hindi HDRip x264 AAC { TaRa }","magnet":"magnet:?xt=urn:btih:ad3fb832cf0ac922f2c3a4d8dfde37760dd5823c&dn=Hindi+Medium+2017+Hindi+HDRip+x264+AAC+%7B+TaRa+%7D&tr=udp%3A%2F%2Ftracker.leechers-paradise.org%3A6969&tr=udp%3A%2F%2Fzer0day.ch%3A1337&tr=udp%3A%2F%2Fopen.demonii.com%3A1337&tr=udp%3A%2F%2Ftracker.coppersurfer.tk%3A6969&tr=udp%3A%2F%2Fexodus.desync.com%3A6969","uploader":"SkTaRa","categoryP":"video","categoryS":"hd___movies","size":"1170081681","seeders":"0","leechers":"10","description":"===================================================================\r\nGeneral\r\nComplete name               : Hindi Medium 2017 Hindi HDRip x264 AAC { TaRa }.mkv\r\nFormat                      : Matroska\r\nFormat version              : Version 4 / Version 2\r\nFile size                   : 1.09 GiB\r\nDuration                    : 2h 10mn\r\nOverall bit rate            : 1 191 Kbps\r\n===================================================================\r\nVideo\r\nID                          : 1\r\nFormat                      : AVC\r\nFormat/Info                 : Advanced Video Codec\r\nFormat profile              : <a class=\"__cf_email__\" href=\"/cdn-cgi/l/email-protection\" data-cfemail=\"2e664749466e621a001f\">[email&#xA0;protected]</a><script data-cfhash=\"f9e31\" type=\"text/javascript\">/* <![CDATA[ */!function(t,e,r,n,c,a,p){try{t=document.currentScript||function(){for(t=document.getElementsByTagName('script'),e=t.length;e--;)if(t[e].getAttribute('data-cfhash'))return t[e]}();if(t&&(c=t.previousSibling)){p=t.parentNode;if(a=c.getAttribute('data-cfemail')){for(e='',r='0x'+a.substr(0,2)|0,n=2;a.length-n;n+=2)e+='%'+('0'+('0x'+a.substr(n,2)^r).toString(16)).slice(-2);p.replaceChild(document.createTextNode(decodeURIComponent(e)),c)}p.removeChild(t)}}catch(u){}}()/* ]]> */</script>\r\nFormat settings, CABAC      : Yes\r\nFormat settings, ReFrames   : 8 frames\r\nCodec ID                    : V_MPEG4/ISO/AVC\r\nDuration                    : 2h 10mn\r\nBit rate                    : 1 000 Kbps\r\nWidth                       : 1 280 pixels\r\nHeight                      : 544 pixels\r\nDisplay aspect ratio        : 2.35:1\r\nFrame rate mode             : Constant\r\nFrame rate                  : 23.976 (23976/1000) fps\r\nColor space                 : YUV\r\nChroma subsampling          : 4:2:0\r\nBit depth                   : 8 bits\r\nScan type                   : Progressive\r\nBits/(Pixel*Frame)          : 0.060\r\nStream size                 : 936 MiB (84%)\r\nTitle                       : .....::::: TaRa :::::....\r\nLanguage                    : Hindi\r\nDefault                     : Yes\r\nForced                      : No\r\n===================================================================\r\nAudio\r\nID                          : 2\r\nFormat                      : AAC\r\nFormat/Info                 : Advanced Audio Codec\r\nFormat profile              : LC\r\nCodec ID                    : A_AAC\r\nDuration                    : 2h 10mn\r\nBit rate                    : 192 Kbps\r\nChannel(s)                  : 2 channels\r\nChannel positions           : Front: L R\r\nSampling rate               : 44.1 KHz\r\nFrame rate                  : 43.066 fps (1024 spf)\r\nCompression mode            : Lossy\r\nStream size                 : 178 MiB (16%)\r\nTitle                       : .....::::: TaRa :::::....\r\nLanguage                    : Hindi\r\nDefault                     : Yes\r\nForced                      : No\r\n=================================================================== <a href=\"\nhttps://www.jiopic.com/image/YMjTv\" rel=\"nofollow\" target=\"_NEW\">\nhttps://www.jiopic.com/image/YMjTv</a> <a href=\"\nhttps://www.jiopic.com/image/YMYUF\" rel=\"nofollow\" target=\"_NEW\">\nhttps://www.jiopic.com/image/YMYUF</a> <a href=\"\nhttps://www.jiopic.com/image/YMSjt\" rel=\"nofollow\" target=\"_NEW\">\nhttps://www.jiopic.com/image/YMSjt</a> <a href=\"\nhttps://www.jiopic.com/image/YMcOz\" rel=\"nofollow\" target=\"_NEW\">\nhttps://www.jiopic.com/image/YMcOz</a> <a href=\"\nhttps://www.jiopic.com/image/YM2L4\" rel=\"nofollow\" target=\"_NEW\">\nhttps://www.jiopic.com/image/YM2L4</a> <a href=\"\nhttps://www.jiopic.com/image/YMX0i\" rel=\"nofollow\" target=\"_NEW\">\nhttps://www.jiopic.com/image/YMX0i</a> <a href=\"\nhttps://www.jiopic.com/image/YMxq1\" rel=\"nofollow\" target=\"_NEW\">\nhttps://www.jiopic.com/image/YMxq1</a> <a href=\"\nhttps://www.jiopic.com/image/YM1Hf\" rel=\"nofollow\" target=\"_NEW\">\nhttps://www.jiopic.com/image/YM1Hf</a> <a href=\"\nhttps://www.jiopic.com/image/YM32D\" rel=\"nofollow\" target=\"_NEW\">\nhttps://www.jiopic.com/image/YM32D</a> <a href=\"\nhttps://www.jiopic.com/image/YM8rQ\" rel=\"nofollow\" target=\"_NEW\">\nhttps://www.jiopic.com/image/YM8rQ</a> <a href=\"\nhttps://www.jiopic.com/image/YMZZj\" rel=\"nofollow\" target=\"_NEW\">\nhttps://www.jiopic.com/image/YMZZj</a> <a href=\"\nhttps://www.jiopic.com/image/YMz0n\" rel=\"nofollow\" target=\"_NEW\">\nhttps://www.jiopic.com/image/YMz0n</a> <a href=\"\nhttps://www.jiopic.com/image/YM5fN\" rel=\"nofollow\" target=\"_NEW\">\nhttps://www.jiopic.com/image/YM5fN</a> <a href=\"\nhttps://www.jiopic.com/image/YMgsY\" rel=\"nofollow\" target=\"_NEW\">\nhttps://www.jiopic.com/image/YMgsY</a> <a href=\"\nhttps://www.jiopic.com/image/YMqeA\" rel=\"nofollow\" target=\"_NEW\">\nhttps://www.jiopic.com/image/YMqeA</a> <a href=\"\nhttps://www.jiopic.com/image/YMiOG\" rel=\"nofollow\" target=\"_NEW\">\nhttps://www.jiopic.com/image/YMiOG</a> <a href=\"\nhttps://www.jiopic.com/image/YMV2b\" rel=\"nofollow\" target=\"_NEW\">\nhttps://www.jiopic.com/image/YMV2b</a> <a href=\"\nhttps://www.jiopic.com/image/YMMPB\" rel=\"nofollow\" target=\"_NEW\">\nhttps://www.jiopic.com/image/YMMPB</a> <a href=\"\nhttps://www.jiopic.com/image/YM7qP\" rel=\"nofollow\" target=\"_NEW\">\nhttps://www.jiopic.com/image/YM7qP</a> <a href=\"\nhttps://www.jiopic.com/image/YMEZR\" rel=\"nofollow\" target=\"_NEW\">\nhttps://www.jiopic.com/image/YMEZR</a> <a href=\"\nhttps://www.jiopic.com/image/YMNrr\" rel=\"nofollow\" target=\"_NEW\">\nhttps://www.jiopic.com/image/YMNrr</a>","last_updated":"2017-06-25T12:03:47.070Z","parsed":{"xt":"urn:btih:ad3fb832cf0ac922f2c3a4d8dfde37760dd5823c","dn":"Hindi Medium 2017 Hindi HDRip x264 AAC { TaRa }","tr":["udp://exodus.desync.com:6969","udp://open.demonii.com:1337","udp://tracker.coppersurfer.tk:6969","udp://tracker.leechers-paradise.org:6969","udp://zer0day.ch:1337"],"infoHash":"ad3fb832cf0ac922f2c3a4d8dfde37760dd5823c","infoHashBuffer":{"type":"Buffer","data":[173,63,184,50,207,10,201,34,242,195,164,216,223,222,55,118,13,213,130,60]},"name":"Hindi Medium 2017 Hindi HDRip x264 AAC { TaRa }","announce":["udp://exodus.desync.com:6969","udp://open.demonii.com:1337","udp://tracker.coppersurfer.tk:6969","udp://tracker.leechers-paradise.org:6969","udp://zer0day.ch:1337"],"urlList":[]}}